<?xml version="1.0" encoding="UTF-8" standalone="no"?>
<!-- Created with Inkscape (http://www.inkscape.org/) -->

<svg
   width="115.84959mm"
   height="101.8458mm"
   viewBox="0 0 115.84959 101.8458"
   version="1.1"
   id="svg1"
   xml:space="preserve"
   inkscape:version="1.3 (0e150ed6c4, 2023-07-21)"
   sodipodi:docname="comic_thought_bubble.svg"
   xmlns:inkscape="http://www.inkscape.org/namespaces/inkscape"
   xmlns:sodipodi="http://sodipodi.sourceforge.net/DTD/sodipodi-0.dtd"
   xmlns="http://www.w3.org/2000/svg"
   xmlns:svg="http://www.w3.org/2000/svg"><sodipodi:namedview
     id="namedview1"
     pagecolor="#ffffff"
     bordercolor="#000000"
     borderopacity="0.25"
     inkscape:showpageshadow="2"
     inkscape:pageopacity="0.0"
     inkscape:pagecheckerboard="0"
     inkscape:deskcolor="#d1d1d1"
     inkscape:document-units="mm"
     inkscape:zoom="0.33323201"
     inkscape:cx="-100.53056"
     inkscape:cy="193.55884"
     inkscape:window-width="1366"
     inkscape:window-height="705"
     inkscape:window-x="-8"
     inkscape:window-y="-8"
     inkscape:window-maximized="1"
     inkscape:current-layer="layer1" /><defs
     id="defs1"><linearGradient
       id="linearGradient1518"
       inkscape:swatch="gradient"><stop
         style="stop-color:#ff2a2a;stop-opacity:1;"
         offset="0"
         id="stop1514" /><stop
         style="stop-color:#ff2a2a;stop-opacity:0;"
         offset="1"
         id="stop1516" /></linearGradient></defs><g
     inkscape:label="Layer 1"
     inkscape:groupmode="layer"
     id="layer1"
     transform="translate(-43.471975,-172.92427)"><g
       id="g22"><g
         id="g19"
         transform="matrix(1.17537,0,0,1.17537,-11.583055,-36.308302)"><g
           id="g8"
           transform="matrix(0.26458333,0,0,0.26458333,0.78095994,122.05986)"><g
             id="g3"
             style="stroke:#000000;stroke-width:2;stroke-miterlimit:4;stroke-dasharray:none;stroke-opacity:1"
             transform="translate(0,12.003649)"><g
               id="g2"
               style="stroke:#000000;stroke-width:2;stroke-miterlimit:4;stroke-dasharray:none;stroke-opacity:1"><g
                 id="path9"
                 transform="translate(111.03375,-180.05473)"><path
                   style="color:#000000;fill:#ffffff;stroke:none;-inkscape-stroke:none"
                   d="m 108.46257,465.92438 c -3.82892,-41.78244 52.7075,-73.32704 95.58821,-44.5357 24.5291,-35.96057 96.06522,-37.47356 120.52428,-0.94756 41.95043,-21.27338 82.29059,10.34523 84.68015,46.94459 29.54485,19.96535 21.77125,70.09421 -9.87199,78.13437 -5.20069,55.84814 -96.17092,56.13835 -117.40726,36.00763 -29.56294,39.75815 -95.59233,28.33765 -113.10357,1.9624 -39.55437,16.69624 -76.796311,-6.97184 -68.72184,-40.84055 -37.738546,-21.39273 -25.701353,-74.81762 8.31202,-76.72518 z"
                   id="path10" /><path
                   style="color:#000000;fill:#000000;stroke:none;-inkscape-stroke:none"
                   d="m 258.69556,387.416 c -23.89134,0.30608 -42.1724,10.75547 -54.96119,28.55611 -22.74283,-14.69376 -51.93357,-13.32508 -74.37959,-1.19191 -17.62759,9.52858 -25.86957,28.54714 -24.60136,48.42325 -16.978259,1.60378 -29.673006,10.01854 -33.289758,30.07824 -2.965399,16.44708 4.589715,40.01556 23.27445,51.05273 -3.668275,17.04577 2.043567,31.07083 15.131928,39.74238 17.15568,11.36631 36.65897,12.60638 56.44549,4.56423 9.43069,13.28583 28.03411,24.41355 55.0509,25.05745 22.34084,0.53245 46.85176,-5.06508 62.00295,-24.55642 17.46446,14.797 50.14274,12.80268 71.89233,8.14125 28.92018,-6.88028 45.78969,-22.94339 49.2512,-48.34702 15.94713,-4.49869 28.32049,-14.35019 30.66489,-36.09886 2.51021,-23.28677 -7.07335,-37.69423 -21.8703,-48.02355 -1.42056,-18.52232 -17.17752,-39.97301 -32.98415,-49.90594 -15.73155,-9.88577 -33.53026,-11.36862 -54.55105,-1.11753 -12.74212,-18.1287 -43.14144,-26.68106 -67.07674,-26.37441 z m 5.65991,7.63869 c 23.67494,-0.30331 47.22785,8.36224 59.12109,26.12304 0,0 2.55482,4.97405 4.40349,4.16113 1.64968,-0.72542 -0.0804,-5.40578 -0.0804,-5.40578 20.58707,-10.43985 37.97378,-6.2009 53.24724,3.397 15.27347,9.59789 25.45855,27.75974 26.62343,40.95963 0,0 -5.3457,-0.57508 -5.52715,1.3096 -0.22342,2.32045 6.3725,2.88116 6.3725,2.88116 16.82756,11.37145 22.23731,34.78155 16.7194,52.16021 -3.86194,12.16316 -13.65154,20.41237 -26.17643,23.5976 0,0 -12.63449,-1.64204 -14.03591,0.49572 -1.64664,2.51183 12.64589,3.98001 12.64589,3.98001 -7.32221,50.67868 -93.37614,51.77131 -113.00198,33.16725 0,0 4.04416,-5.3231 2.10839,-6.55832 -2.24229,-1.43082 -5.86089,5.41534 -5.86089,5.41534 -14.46404,19.45218 -37.87503,26.41499 -59.93945,25.25 -22.06442,-1.16499 -42.61931,-10.60561 -51,-23.22851 0,0 -2.60259,-7.50281 -5.05029,-6.35161 -2.11396,0.99425 1.44376,6.85799 1.44376,6.85799 -19.43399,8.20326 -36.19717,5.44868 -49.03019,-2.36381 -12.83302,-7.81248 -19.815169,-20.30548 -15.90039,-36.72619 0,0 5.30028,-9.48109 2.88293,-10.54116 -2.62199,-1.14981 -5.241857,6.80403 -5.241857,6.80403 -18.406034,-10.43376 -22.840839,-27.47523 -20.373575,-43.25543 2.467264,-15.78019 13.505642,-29.02382 29.832032,-29.93945 0,0 3.42462,-0.13515 3.55547,-1.40243 0.10564,-1.02311 -2.57853,-1.69484 -2.57853,-1.69484 0,0 0.10733,-0.49466 0.0869,-1.56146 -0.7482,-39.01764 50.11743,-69.18132 91.06107,-41.69058 0,0 -5.345,9.49253 -4.74555,14.52519 0.80245,6.73701 9.22614,-13.28724 9.22614,-13.28724 11.93224,-17.4931 35.53795,-26.77481 59.21289,-27.07812 z"
                   id="path11"
                   sodipodi:nodetypes="scscscscscscscscsscacscacsssccacscacssscscacscscss" /></g><g
                 id="g21"
                 transform="matrix(-0.91004494,0.41450959,0.41450959,0.91004494,107.08306,-66.650154)"
                 style="fill:#ffffff;fill-opacity:1"><path
                   style="color:#000000;fill:#ffffff;fill-opacity:1;stroke:none;-inkscape-stroke:none"
                   d="m 80.466348,509.38678 -1.09375,0.85742 c -15.536213,-4.84278 -26.40112,-1.80552 -21.936304,19.89208 -15.746114,15.60108 -1.260603,28.54867 11.498804,27.17931 16.031025,18.88318 26.690433,4.13025 30.321302,-1.68801 12.50586,2.45407 21.04542,-0.5466 16.86549,-15.57424 12.10145,-11.16022 6.195,-28.45136 -6.79482,-25.49383 -7.32373,-18.26023 -23.325425,-9.84574 -28.860722,-5.17273 z"
                   id="path20"
                   sodipodi:nodetypes="cccccccc" /><path
                   style="color:#000000;fill:#ffffff;fill-opacity:1;stroke:none;stroke-width:1.29411;-inkscape-stroke:none"
                   d="m 160.93107,573.6129 -0.89569,0.0801 c -0.80701,6.55516 -10.79514,16.69055 -19.15789,0.33541 -14.33753,-0.38292 -14.50016,-15.21823 -6.61658,-17.91269 -0.80395,-16.00755 9.53003,-16.92142 15.0486,-12.6356 2.969,-10.28929 14.11077,-9.00588 14.85356,-0.12561 14.09631,-1.35698 15.52523,10.67463 8.08854,15.03396 8.59441,13.76276 -6.63981,14.97639 -11.32054,15.22442 z"
                   id="path21"
                   sodipodi:nodetypes="scccccccs" /></g></g><g
               id="g13"
               transform="matrix(-0.91004493,0.41450959,0.41450959,0.91004493,107.08306,-66.650156)"
               style="fill:#000000;fill-opacity:1;stroke:#000000;stroke-width:2;stroke-miterlimit:4;stroke-dasharray:none;stroke-opacity:1"><path
                 style="color:#000000;fill:#000000;fill-opacity:1;stroke:none;-inkscape-stroke:none"
                 d="m 80.466348,509.38678 -1.09375,0.85742 c -15.536213,-4.84278 -26.40112,-1.80552 -21.936304,19.89208 -15.746114,15.60108 -1.260603,28.54867 11.498804,27.17931 16.031025,18.88318 26.690433,4.13025 30.321302,-1.68801 12.50586,2.45407 21.04542,-0.5466 16.86549,-15.57424 12.10145,-11.16022 6.195,-28.45136 -6.79482,-25.49383 -7.32373,-18.26023 -23.325425,-9.84574 -28.860722,-5.17273 z m -0.579623,8.72505 c 11.338187,-15.35134 27.299485,-13.16411 26.365005,2.28155 -0.0773,1.27795 2.94967,-2.45999 2.94967,-2.45999 7.42097,2.93007 12.08122,8.7875 5.20452,17.37172 -0.59929,0.7481 -3.79418,-1.11164 -3.56699,0.0556 2.67277,13.73189 2.33235,18.35615 -17.107881,15.32466 -1.126671,-0.17569 2.169082,2.41521 1.568212,3.04026 -12.753432,13.26669 -20.436541,2.46213 -25.1683,-5.36116 -0.961426,-1.58958 -0.349784,3.4135 -0.349784,3.4135 -9.649189,2.77527 -20.234251,-8.36916 -9.278817,-16.56728 0,0 3.563109,1.86922 2.400539,-1.03227 -6.215068,-15.51127 -5.042103,-20.12434 15.46727,-19.64129 0,0 -0.64542,6.50191 1.516556,3.5747 z"
                 id="path13"
                 sodipodi:nodetypes="ccccccccsssssssssssss" /><path
                 style="color:#000000;fill:#000000;fill-opacity:1;stroke:none;stroke-width:1.29411;-inkscape-stroke:none"
                 d="m 160.93107,573.6129 -0.89569,0.0801 c -0.80701,6.55516 -10.79514,16.69055 -19.15789,0.33541 -14.33753,-0.38292 -14.50016,-15.21823 -6.61658,-17.91269 -0.80395,-16.00755 9.53003,-16.92142 15.0486,-12.6356 2.969,-10.28929 14.11077,-9.00588 14.85356,-0.12561 14.09631,-1.35698 15.52523,10.67463 8.08854,15.03396 8.59441,13.76276 -6.63981,14.97639 -11.32054,15.22442 z m -4.1384,-3.85834 c 9.8297,1.79453 16.00013,-3.1679 14.13871,-8.76745 -0.43899,-1.32059 -2.54163,-2.08494 -2.71452,-3.9878 -0.14547,-1.60108 2.48092,-0.14642 2.48092,-0.14642 2.20208,-4.66929 1.80533,-9.49631 -5.24066,-10.49875 -0.61404,-0.0874 -1.29706,2.20504 -1.70697,1.55388 -4.82237,-7.66053 -7.03137,-9.69074 -14.85734,0.35069 -0.45357,0.58196 -0.0468,-2.09998 -0.60715,-2.12861 -11.89194,-0.60762 -10.72942,7.89175 -9.49557,13.67762 0.25072,1.17562 -1.67707,-1.455 -1.67707,-1.455 -5.78036,2.96546 -5.83597,12.91063 2.96269,11.92418 0,0 0.85248,-2.46001 1.58947,-0.57653 3.9399,10.06893 12.0459,10.24615 15.99574,2.41197 0,0 -3.18462,-2.78066 -0.86825,-2.35778 z"
                 id="path14"
                 sodipodi:nodetypes="scccccccsssssssssssssss" /></g></g><path
             id="path6"
             style="display:inline;fill:#000000;fill-rule:evenodd;stroke:#000000;stroke-width:1.08923;stroke-linecap:round;stroke-linejoin:round;stroke-miterlimit:4;stroke-dasharray:none;stroke-dashoffset:0;stroke-opacity:1;paint-order:stroke markers fill"
             inkscape:transform-center-x="2.0677035"
             inkscape:transform-center-y="-1.7347421"
             d="m 524.50896,386.75187 c -1.47443,2.37074 -1.33322,7.16844 -2.25037,10.82167 -1.12473,4.47997 -10.96584,18.95623 -3.98299,13.58643 5.52918,-4.25193 7.94572,-9.30612 9.07794,-13.76409 1.12525,-4.43058 0.0306,-15.2669 -2.84458,-10.64401 z"
             sodipodi:nodetypes="sasas" /><path
             id="path15"
             style="display:inline;fill:#000000;fill-rule:evenodd;stroke:#000000;stroke-width:1.07435;stroke-linecap:round;stroke-linejoin:round;stroke-miterlimit:4;stroke-dasharray:none;stroke-dashoffset:0;stroke-opacity:1;paint-order:stroke markers fill"
             inkscape:transform-center-x="0.21551441"
             inkscape:transform-center-y="3.3574006"
             d="m 313.50152,232.15316 c 2.29335,-0.80802 4.56906,-5.40373 7.18566,-7.76978 3.46513,-3.13333 17.97758,-7.16245 11.1921,-8.43568 -5.37289,-1.00818 -10.06399,1.04216 -13.5407,4.25028 -3.15936,2.91528 -9.309,13.5308 -4.83706,11.95518 z"
             sodipodi:nodetypes="sasas" /><path
             id="path16"
             style="display:inline;fill:#000000;fill-rule:evenodd;stroke:#000000;stroke-width:0.814832;stroke-linecap:round;stroke-linejoin:round;stroke-miterlimit:4;stroke-dasharray:none;stroke-dashoffset:0;stroke-opacity:1;paint-order:stroke markers fill"
             inkscape:transform-center-x="-2.3609004"
             inkscape:transform-center-y="0.67039631"
             d="m 202.76441,413.4004 c -0.30579,-1.85764 -3.05096,-4.97522 -4.44406,-7.55953 -1.70836,-3.16915 -3.00548,-14.68416 -4.79174,-9.72856 -1.41441,3.92396 -0.26796,7.73496 1.42316,10.89122 1.68073,3.13688 8.40893,10.01916 7.81264,6.39687 z"
             sodipodi:nodetypes="sasas" /><path
             id="path17"
             style="display:inline;fill:#000000;fill-rule:evenodd;stroke:#000000;stroke-width:0.754748;stroke-linecap:round;stroke-linejoin:round;stroke-miterlimit:4;stroke-dasharray:none;stroke-dashoffset:0;stroke-opacity:1;paint-order:stroke markers fill"
             inkscape:transform-center-x="1.8976819"
             inkscape:transform-center-y="-1.3093717"
             d="m 367.8816,448.28713 c 1.38968,-0.96271 5.02235,-0.91951 7.51946,-1.53958 3.06222,-0.76041 11.32789,-7.17275 9.13668,-2.67062 -1.73508,3.56488 -4.88852,5.15408 -7.93229,5.91906 -3.02507,0.76026 -11.43368,0.16836 -8.72386,-1.70883 z"
             sodipodi:nodetypes="sasas" /><path
             id="path18"
             style="display:inline;fill:#000000;fill-rule:evenodd;stroke:#000000;stroke-width:0.8798;stroke-linecap:round;stroke-linejoin:round;stroke-miterlimit:4;stroke-dasharray:none;stroke-dashoffset:0;stroke-opacity:1;paint-order:stroke markers fill"
             inkscape:transform-center-x="0.18388346"
             inkscape:transform-center-y="2.6388374"
             d="m 343.30299,214.83332 c 4.10217,1.86181 11.75885,-2.06798 8.36326,-2.6819 -4.7539,-0.85949 -12.35316,0.87105 -8.36326,2.6819 z"
             sodipodi:nodetypes="sss" /><path
             id="path19"
             style="display:inline;fill:#000000;fill-rule:evenodd;stroke:#000000;stroke-width:0.8798;stroke-linecap:round;stroke-linejoin:round;stroke-miterlimit:4;stroke-dasharray:none;stroke-dashoffset:0;stroke-opacity:1;paint-order:stroke markers fill"
             inkscape:transform-center-x="0.18388346"
             inkscape:transform-center-y="2.6388374"
             d="m 395.51901,436.33743 c 4.10217,1.86181 8.04541,-3.65945 4.64982,-4.27337 -4.7539,-0.85949 -8.63972,2.46252 -4.64982,4.27337 z"
             sodipodi:nodetypes="sss" /></g></g></g></g></svg>
